<svg height="512pt" viewBox="0 0 512 512" width="512pt" xmlns="http://www.w3.org/2000/svg"><path d="m503.464844 256c0 136.671875-110.792969 247.464844-247.464844 247.464844s-247.464844-110.792969-247.464844-247.464844 110.792969-247.464844 247.464844-247.464844 247.464844 110.792969 247.464844 247.464844zm0 0" fill="#37474f"/><path d="m477.867188 256c0-136.671875-105.0625-247.464844-234.667969-247.464844-129.601563 0-234.664063 110.792969-234.664063 247.464844s105.0625 247.464844 234.664063 247.464844c129.605469 0 234.667969-110.792969 234.667969-247.464844zm0 0" fill="#607d8b"/><path d="m315.734375 256c0 32.988281-26.746094 59.734375-59.734375 59.734375s-59.734375-26.746094-59.734375-59.734375 26.746094-59.734375 59.734375-59.734375 59.734375 26.746094 59.734375 59.734375zm0 0" fill="#424242"/><path d="m230.398438 54.101562v105.386719c-.039063 3.707031-2.441407 6.972657-5.972657 8.105469-26.515625 9.449219-47.382812 30.316406-56.832031 56.832031-1.132812 3.53125-4.398438 5.933594-8.105469 5.972657h-105.386719c-2.472656 0-4.820312-1.070313-6.441406-2.9375-1.621094-1.863282-2.351562-4.34375-2.007812-6.789063 14.074218-83.265625 75.882812-150.425781 157.695312-171.347656 5.71875-1.453125 11.4375-2.730469 17.324219-3.671875 2.445313-.34375 4.925781.386718 6.789063 2.007812 1.867187 1.621094 2.9375 3.96875 2.9375 6.441406zm0 0" fill="#ffb301"/><path d="m204.800781 54.101562v105.386719c-.039062 3.707031-2.445312 6.972657-5.972656 8.105469-26.519531 9.449219-47.382813 30.316406-56.832031 56.832031-1.136719 3.53125-4.402344 5.933594-8.109375 5.972657h-79.785157c-2.472656 0-4.820312-1.070313-6.441406-2.9375-1.621094-1.863282-2.351562-4.34375-2.007812-6.789063 14.074218-83.265625 75.882812-150.425781 157.695312-171.347656.964844 1.40625 1.46875 3.074219 1.453125 4.777343zm0 0" fill="#fdd834"/><path d="m466.347656 291.328125c-15.148437 89.640625-85.378906 159.871094-175.019531 175.019531-2.445313.34375-4.925781-.386718-6.789063-2.007812-1.867187-1.621094-2.9375-3.96875-2.9375-6.441406v-105.386719c.039063-3.707031 2.441407-6.972657 5.972657-8.105469 26.515625-9.449219 47.382812-30.316406 56.832031-56.832031 1.132812-3.53125 4.398438-5.933594 8.105469-5.972657h105.386719c2.472656 0 4.820312 1.070313 6.441406 2.9375 1.621094 1.863282 2.351562 4.34375 2.007812 6.789063zm0 0" fill="#2e7d32"/><path d="m442.792969 281.601562c-15.804688 82.941407-78.976563 148.789063-161.191407 168.019532v-97.109375c.039063-3.707031 2.441407-6.972657 5.972657-8.105469 26.515625-9.449219 47.382812-30.316406 56.832031-56.832031 1.132812-3.53125 4.398438-5.933594 8.105469-5.972657zm0 0" fill="#4caf50"/><path d="m466.347656 220.671875c.34375 2.445313-.386718 4.925781-2.007812 6.789063-1.621094 1.867187-3.96875 2.9375-6.441406 2.9375h-105.386719c-3.707031-.039063-6.972657-2.441407-8.105469-5.972657-9.449219-26.515625-30.316406-47.382812-56.832031-56.832031-3.53125-1.132812-5.933594-4.398438-5.972657-8.105469v-105.386719c0-2.472656 1.070313-4.820312 2.9375-6.441406 1.863282-1.621094 4.34375-2.351562 6.789063-2.007812 89.640625 15.148437 159.871094 85.378906 175.019531 175.019531zm0 0" fill="#0377bc"/><path d="m434.6875 230.398438h-82.175781c-3.707031-.039063-6.972657-2.441407-8.105469-5.972657-9.449219-26.515625-30.316406-47.382812-56.832031-56.832031-3.53125-1.132812-5.933594-4.398438-5.972657-8.105469v-103.425781c79.863282 22.160156 139.703126 88.515625 153.511719 170.242188.25 1.378906.101563 2.796874-.425781 4.09375zm0 0" fill="#02a9f4"/><path d="m230.398438 352.511719v105.386719c0 2.472656-1.070313 4.820312-2.9375 6.441406-1.863282 1.621094-4.34375 2.351562-6.789063 2.007812-2.472656-.425781-4.863281-.855468-7.339844-1.367187-83.722656-17.164063-149.148437-82.589844-166.3125-166.3125-.511719-2.476563-.941406-4.867188-1.367187-7.339844-.34375-2.445313.386718-4.925781 2.007812-6.789063 1.621094-1.867187 3.96875-2.9375 6.441406-2.9375h105.386719c3.707031.039063 6.972657 2.441407 8.105469 5.972657 9.449219 26.515625 30.316406 47.382812 56.832031 56.832031 3.53125 1.132812 5.933594 4.398438 5.972657 8.105469zm0 0" fill="#c52828"/><path d="m213.332031 369.578125v95.402344c-83.722656-17.164063-149.148437-82.589844-166.3125-166.3125h95.402344c3.707031.039062 6.972656 2.445312 8.105469 5.972656 9.449218 26.515625 30.316406 47.382813 56.832031 56.832031 3.527344 1.132813 5.933594 4.398438 5.972656 8.105469zm0 0" fill="#f44335"/><path d="m256 0c-141.386719 0-256 114.613281-256 256s114.613281 256 256 256 256-114.613281 256-256c-.160156-141.320312-114.679688-255.839844-256-256zm0 494.933594c-131.960938 0-238.933594-106.972656-238.933594-238.933594s106.972656-238.933594 238.933594-238.933594 238.933594 106.972656 238.933594 238.933594c-.152344 131.898438-107.035156 238.78125-238.933594 238.933594zm0 0"/><path d="m54.144531 238.933594h105.351563c7.292968-.078125 13.753906-4.722656 16.144531-11.613282 8.507813-24.167968 27.511719-43.171874 51.679687-51.679687 6.890626-2.390625 11.535157-8.851563 11.613282-16.144531v-105.351563c.011718-5.050781-2.21875-9.847656-6.085938-13.097656-3.761718-3.199219-8.738281-4.582031-13.609375-3.78125-93.308593 15.542969-166.425781 88.65625-181.972656 181.964844-.824219 4.886719.558594 9.886719 3.78125 13.652343 3.253906 3.855469 8.050781 6.070313 13.097656 6.050782zm167.722657-184.789063v105.234375c-.082032.082032-.179688.140625-.289063.175782-29.082031 10.265624-51.925781 33.191406-62.082031 62.3125l-105.394532.179687c14.320313-86.054687 81.722657-153.511719 167.765626-167.902344zm0 0"/><path d="m167.425781 99.960938c-1.210937-1.917969-3.128906-3.273438-5.339843-3.773438-2.207032-.5-4.523438-.101562-6.4375 1.109375-5.863282 3.714844-11.519532 7.746094-16.949219 12.074219-3.496094 2.988281-4 8.210937-1.128907 11.808594 2.867188 3.597656 8.070313 4.273437 11.761719 1.53125 4.914063-3.945313 10.039063-7.609376 15.359375-10.976563 1.929688-1.195313 3.300782-3.109375 3.8125-5.320313.511719-2.210937.125-4.53125-1.078125-6.453124zm0 0"/><path d="m109.378906 138.691406c-4.335937 5.425782-8.375 11.085938-12.097656 16.949219-7.496094 11.871094-13.632812 24.550781-18.296875 37.792969-1.566406 4.445312.773437 9.320312 5.21875 10.882812 4.445313 1.566406 9.320313-.769531 10.882813-5.214844 4.25-12.042968 9.851562-23.5625 16.699218-34.339843 3.367188-5.324219 7.03125-10.449219 10.976563-15.359375 1.902343-2.382813 2.394531-5.601563 1.285156-8.441406-1.113281-2.84375-3.65625-4.875-6.671875-5.335938-3.015625-.457031-6.046875.726562-7.953125 3.109375zm0 0"/><path d="m457.855469 273.066406h-105.351563c-7.292968.074219-13.75 4.71875-16.144531 11.605469-8.507813 24.167969-27.519531 43.175781-51.6875 51.679687-6.890625 2.394532-11.535156 8.859376-11.605469 16.152344v105.351563c-.011718 5.050781 2.21875 9.847656 6.085938 13.097656 3.027344 2.585937 6.875 4.007813 10.851562 4.011719.925782-.003906 1.847656-.082032 2.757813-.230469 93.308593-15.542969 166.425781-88.65625 181.972656-181.964844.824219-4.886719-.558594-9.886719-3.78125-13.652343-3.253906-3.855469-8.050781-6.070313-13.097656-6.050782zm-167.722657 184.789063.246094-105.429688c29.011719-10.21875 51.828125-33.035156 62.046875-62.046875l-8.046875-2.847656 8.109375 2.558594 105.394531-.179688c-14.300781 86.066406-81.699218 153.542969-167.75 167.945313zm0 0"/><path d="m330.605469 409.515625c-5.757813 2.785156-11.671875 5.246094-17.707031 7.371094-4.445313 1.566406-6.78125 6.4375-5.214844 10.886719 1.5625 4.445312 6.4375 6.78125 10.882812 5.214843 6.644532-2.335937 13.152344-5.046875 19.488282-8.121093 4.242187-2.058594 6.015624-7.164063 3.957031-11.40625-2.058594-4.242188-7.164063-6.011719-11.40625-3.953126zm0 0"/><path d="m367.972656 404.480469c1.9375 0 3.8125-.65625 5.328125-1.859375 10.824219-8.664063 20.65625-18.496094 29.320313-29.320313 1.902344-2.382812 2.394531-5.601562 1.28125-8.445312-1.109375-2.839844-3.652344-4.871094-6.667969-5.332031-3.015625-.457032-6.046875.726562-7.953125 3.109374-7.847656 9.851563-16.773438 18.792969-26.613281 26.65625-2.832031 2.265626-3.925781 6.074219-2.722657 9.496094 1.203126 3.421875 4.4375 5.707032 8.0625 5.703125zm0 0"/><path d="m292.769531 37.265625c-4.886719-.816406-9.882812.566406-13.652343 3.78125-3.855469 3.253906-6.070313 8.050781-6.050782 13.097656v105.351563c.078125 7.292968 4.722656 13.753906 11.613282 16.144531 24.167968 8.507813 43.171874 27.511719 51.679687 51.679687 2.390625 6.890626 8.851563 11.535157 16.144531 11.613282h105.351563c5.050781.011718 9.847656-2.21875 13.097656-6.085938 3.210937-3.753906 4.59375-8.738281 3.78125-13.609375-15.542969-93.308593-88.65625-166.425781-181.964844-181.972656zm59.851563 184.601563c-.082032-.082032-.140625-.179688-.175782-.289063-10.265624-29.082031-33.191406-51.925781-62.3125-62.082031l-.179687-105.394532c86.054687 14.320313 153.511719 81.722657 167.902344 167.765626zm0 0"/><path d="m373.308594 109.378906c-3.683594-2.945312-9.058594-2.347656-12.003906 1.335938-2.945313 3.683594-2.347657 9.058594 1.335937 12.003906 9.847656 7.847656 18.789063 16.777344 26.648437 26.613281 7.910157 9.894531 14.695313 20.632813 20.226563 32.027344 2.054687 4.242187 7.164063 6.011719 11.402344 3.953125 4.242187-2.054688 6.015625-7.160156 3.957031-11.402344-3.042969-6.269531-6.433594-12.367187-10.15625-18.261718-11.132812-17.613282-25.125-33.25-41.394531-46.269532zm0 0"/><path d="m338.054688 87.132812c-6.335938-3.074218-12.84375-5.785156-19.488282-8.121093-4.445312-1.566407-9.320312.769531-10.882812 5.214843-1.566406 4.449219.769531 9.320313 5.214844 10.886719 6.035156 2.125 11.949218 4.585938 17.707031 7.371094 4.242187 2.058594 9.347656.289063 11.40625-3.953125 2.058593-4.242188.285156-9.347656-3.957031-11.40625zm0 0"/><path d="m227.328125 336.359375c-24.167969-8.507813-43.175781-27.519531-51.679687-51.6875-2.394532-6.890625-8.859376-11.535156-16.152344-11.605469h-105.351563c-5.050781-.011718-9.847656 2.21875-13.097656 6.085938-3.210937 3.753906-4.59375 8.738281-3.78125 13.609375 15.542969 93.308593 88.65625 166.425781 181.964844 181.972656.914062.148437 1.839843.21875 2.765625.222656 3.976562-.003906 7.824218-1.421875 10.851562-4.003906 3.867188-3.25 6.097656-8.046875 6.085938-13.097656v-105.351563c-.074219-7.292968-4.71875-13.75-11.605469-16.144531zm-5.28125 121.539063c-86.054687-14.320313-153.511719-81.722657-167.902344-167.765626l105.410157.246094c10.222656 29.015625 33.046874 51.835938 62.066406 62.046875l2.847656-8.046875-2.558594 8.109375zm0 0"/><path d="m95.113281 312.898438c-1.566406-4.445313-6.4375-6.78125-10.886719-5.214844-4.445312 1.5625-6.78125 6.4375-5.214843 10.882812 2.335937 6.644532 5.046875 13.152344 8.121093 19.488282 2.058594 4.242187 7.164063 6.015624 11.40625 3.957031 4.242188-2.058594 6.011719-7.164063 3.953126-11.40625-2.785157-5.757813-5.25-11.671875-7.378907-17.707031zm0 0"/><path d="m135.289062 376.703125c-4.445312-4.445313-8.644531-9.132813-12.578124-14.035156-1.90625-2.382813-4.9375-3.570313-7.953126-3.109375-3.019531.457031-5.558593 2.492187-6.671874 5.332031-1.109376 2.84375-.621094 6.058594 1.285156 8.441406 8.664062 10.824219 18.496094 20.660157 29.320312 29.320313 3.683594 2.945312 9.058594 2.347656 12.003906-1.332032 2.945313-3.683593 2.347657-9.058593-1.335937-12.003906-4.917969-3.945312-9.617187-8.15625-14.070313-12.613281zm0 0"/><path d="m324.265625 256c0-37.703125-30.5625-68.265625-68.265625-68.265625s-68.265625 30.5625-68.265625 68.265625 30.5625 68.265625 68.265625 68.265625c37.683594-.042969 68.222656-30.582031 68.265625-68.265625zm-68.265625 51.199219c-28.277344 0-51.199219-22.921875-51.199219-51.199219s22.921875-51.199219 51.199219-51.199219 51.199219 22.921875 51.199219 51.199219c-.027344 28.265625-22.933594 51.171875-51.199219 51.199219zm0 0"/><path d="m247.464844 273.066406c0 4.714844-3.820313 8.535156-8.53125 8.535156-4.714844 0-8.535156-3.820312-8.535156-8.535156 0-4.710937 3.820312-8.53125 8.535156-8.53125 4.710937 0 8.53125 3.820313 8.53125 8.53125zm0 0"/><path d="m281.601562 273.066406c0 4.714844-3.820312 8.535156-8.535156 8.535156-4.710937 0-8.53125-3.820312-8.53125-8.535156 0-4.710937 3.820313-8.53125 8.53125-8.53125 4.714844 0 8.535156 3.820313 8.535156 8.53125zm0 0"/><path d="m281.601562 230.398438h-25.601562c-4.710938 0-8.535156 3.820312-8.535156 8.535156 0 4.710937 3.824218 8.53125 8.535156 8.53125h25.601562c4.710938 0 8.53125-3.820313 8.53125-8.53125 0-4.714844-3.820312-8.535156-8.53125-8.535156zm0 0"/></svg>